<?xml version="1.0" encoding="UTF-8"?>
<svg version="1.1" xmlns="http://www.w3.org/2000/svg" width="720" height="720">
<path d="M0 0 C237.6 0 475.2 0 720 0 C720 237.6 720 475.2 720 720 C482.4 720 244.8 720 0 720 C0 482.4 0 244.8 0 0 Z " fill="#1B1A17" transform="translate(0,0)"/>
<path d="M0 0 C245.80634921 0 245.80634921 0 277 10 C278.13526123 10.35167236 278.13526123 10.35167236 279.29345703 10.71044922 C299.99992169 17.19179678 318.40931883 26.99245859 335 41 C335.83402344 41.69867188 336.66804688 42.39734375 337.52734375 43.1171875 C370.66580488 71.81335877 384.65506769 117.59844979 388 160 C388.15951363 163.68102655 388.20940614 167.35880764 388.23828125 171.04296875 C388.24798447 172.0775975 388.25768768 173.11222626 388.26768494 174.1782074 C388.29253426 177.5146781 388.30520385 180.85094608 388.3125 184.1875 C388.31511841 185.32572205 388.31773682 186.46394409 388.32043457 187.63665771 C388.32498013 206.08676528 387.40123436 223.83680116 384 242 C383.85046875 242.83354004 383.7009375 243.66708008 383.546875 244.52587891 C382.63685261 249.43304823 381.43677818 254.21978886 380 259 C379.72671875 259.91297852 379.4534375 260.82595703 379.171875 261.76660156 C372.09008375 284.98497437 362.04581544 306.53967138 346 325 C345.23042969 325.90234375 344.46085937 326.8046875 343.66796875 327.734375 C318.87625665 356.000831 282.08698086 371.11598037 245.6875 377.3125 C244.75881104 377.47186035 243.83012207 377.6312207 242.87329102 377.79541016 C226.22106861 380.43013597 209.40033604 380.13650632 192.59375 380.09765625 C190.44563829 380.09618229 188.29752621 380.09516438 186.14941406 380.09460449 C178.26627049 380.08940416 170.38313466 380.07544308 162.5 380.0625 C144.845 380.041875 127.19 380.02125 109 380 C109 431.81 109 483.62 109 537 C73.03 537 37.06 537 0 537 C0 359.79 0 182.58 0 0 Z " fill="#FEFEFE" transform="translate(164,72)"/>
<path d="M0 0 C16.438125 -0.0825 32.87625 -0.165 49.8125 -0.25 C54.96464111 -0.28641602 60.11678223 -0.32283203 65.42504883 -0.36035156 C71.81384277 -0.37841797 71.81384277 -0.37841797 74.8235321 -0.3817749 C76.88439917 -0.38783735 78.94525387 -0.40173523 81.00602722 -0.42230225 C104.72411267 -0.64676825 129.45717568 2.07480785 147.625 19.0625 C156.67052719 28.63541658 161.50667399 39.53809414 165 52 C165.22300781 52.77601563 165.44601562 53.55203125 165.67578125 54.3515625 C166.23446125 56.5606941 166.63620461 58.75011976 167 61 C167.18433594 62.07894531 167.36867188 63.15789062 167.55859375 64.26953125 C172.47337523 98.2662611 170.68303025 138.45419915 150.0625 167.4375 C149.06653715 168.64593492 148.04432893 169.83310924 147 171 C146.37996094 171.72316406 145.75992188 172.44632813 145.12109375 173.19140625 C133.9215975 185.38091322 116.93092934 193.01156582 100.44335556 194.1814003 C97.7634206 194.24337075 95.09023703 194.24781588 92.40966797 194.22705078 C90.87642726 194.22741239 90.87642726 194.22741239 89.31221199 194.2277813 C86.03877858 194.22630134 82.76557959 194.21112952 79.4921875 194.1953125 C77.45711374 194.19236797 75.42203847 194.19033006 73.38696289 194.18920898 C65.882952 194.17876911 58.37897364 194.15084659 50.875 194.125 C34.08625 194.08375 17.2975 194.0425 0 194 C0 129.98 0 65.96 0 0 Z " fill="#1B1A17" transform="translate(273,165)"/>
<path d="M0 0 C13.05560781 11.19662601 23.44989739 27.93334553 24.85888672 45.37109375 C26.02707736 65.09314507 20.94715872 83.69680686 7.8984375 98.9453125 C-4.62880219 112.00374256 -21.06352064 120.51638918 -39.2578125 121.453125 C-57.87432428 121.8073457 -74.78889883 116.77301527 -89.078125 104.42578125 C-102.58077792 91.27721888 -111.1928584 74.26808948 -111.5546875 55.25170898 C-111.62372016 36.4597256 -105.60559309 18.9263174 -92.3125 5.25 C-66.6250199 -19.76481287 -28.5604346 -21.50847544 0 0 Z " fill="#93C952" transform="translate(459.3125,486.75)"/>
<path d="M0 0 C0.33 0 0.66 0 1 0 C1 15.18 1 30.36 1 46 C-13.85 46 -28.7 46 -44 46 C-40.78410621 44.3920531 -37.65053585 43.05903366 -34.3125 41.75 C-18.83804815 35.28979194 -9.45172953 25.18288432 -2.77001953 10.01513672 C-1.5186313 6.74026085 -0.75876552 3.42016418 0 0 Z " fill="#000000" transform="translate(719,674)"/>
<path d="M0 0 C1.6079469 3.21589379 2.94096634 6.34946415 4.25 9.6875 C10.71020806 25.16195185 20.81711568 34.54827047 35.98486328 41.22998047 C39.25973915 42.4813687 42.57983582 43.24123448 46 44 C46 44.33 46 44.66 46 45 C30.82 45 15.64 45 0 45 C0 30.15 0 15.3 0 0 Z " fill="#000000" transform="translate(0,675)"/>
<path d="M0 0 C15.18 0 30.36 0 46 0 C46 14.85 46 29.7 46 45 C44.3920531 41.78410621 43.05903366 38.65053585 41.75 35.3125 C35.28979194 19.83804815 25.18288432 10.45172953 10.01513672 3.77001953 C6.74026085 2.5186313 3.42016418 1.75876552 0 1 C0 0.67 0 0.34 0 0 Z " fill="#000000" transform="translate(674,0)"/>
<path d="M0 0 C14.85 0 29.7 0 45 0 C41.78410621 1.6079469 38.65053585 2.94096634 35.3125 4.25 C19.83804815 10.71020806 10.45172953 20.81711568 3.77001953 35.98486328 C2.5186313 39.25973915 1.75876552 42.57983582 1 46 C0.67 46 0.34 46 0 46 C0 30.82 0 15.64 0 0 Z " fill="#000000" transform="translate(0,0)"/>
</svg>
