<svg id="Layer_1" data-name="Layer 1" xmlns="http://www.w3.org/2000/svg" viewBox="0 0 578.78 147.94"><defs><style>.cls-1{fill:#92cf4f;}</style></defs><path d="M52.78,98.87H32.27v36.25H7V10.62H52.78q44.31,0,44.31,43.21,0,22-11.17,33.51T52.78,98.87ZM32.27,32.22V77.27H52.6q18.85,0,18.86-23.44,0-11.53-4.49-16.57t-14.37-5Z"/><path d="M150,41.38q22.71,0,32.41,12.54t9.7,35.25q0,48.15-42.11,48.15T107.89,89.17a81.44,81.44,0,0,1,2.2-19.78,38.84,38.84,0,0,1,7.14-15,32,32,0,0,1,13-9.61Q138.29,41.38,150,41.38Zm0,75.07q9.88,0,13.55-6.5t3.66-20.78q0-14.28-3.66-20.6T150,62.25q-9.88,0-13.55,6.32t-3.66,20.6c0,3.17.15,6.38.46,9.61a27.81,27.81,0,0,0,2.2,8.79,15.51,15.51,0,0,0,5.12,6.41C142.83,115.62,146,116.45,150,116.45Z"/><path d="M276.16,46.14l-.37,20.32Q264.26,65,256.47,64.27t-12.36-.74q-9.15,0-11.71,1.65a5.55,5.55,0,0,0-2.75,5.13q0,3.48,3.66,4.94A46.46,46.46,0,0,0,239.63,77q4.49,1,12,2.29a59.92,59.92,0,0,1,12.45,3.39,25.14,25.14,0,0,1,8.42,5.4,19.12,19.12,0,0,1,4.77,8.05,39.87,39.87,0,0,1,1.46,11.54q0,29.66-36.8,29.66-11.91,0-29.3-3.29l-5.86-1.1.73-20.51q11.53,1.47,19.32,2.2t12.36.73q9,0,12.09-1.83a5.71,5.71,0,0,0-.19-10.26q-3.3-1.45-17.58-4a66.45,66.45,0,0,1-12.45-3,25.65,25.65,0,0,1-8.78-5.13A19.67,19.67,0,0,1,207,83a36.43,36.43,0,0,1-1.74-12.17A29.15,29.15,0,0,1,208,58a25.56,25.56,0,0,1,7.33-9.15,31.69,31.69,0,0,1,11.16-5.5,52.31,52.31,0,0,1,14.2-1.83,117.74,117.74,0,0,1,12.72.83q7.41.81,16.75,2.65Z"/><path d="M347.2,43.58V64.45H324.67V102c0,1.83,0,3.39.1,4.67a27.7,27.7,0,0,0,.27,3,7,7,0,0,0,2,4q1.63,1.65,5.3,1.65l13.92-.37,1.1,19.6q-12.27,2.74-18.68,2.74A46.12,46.12,0,0,1,315,135.58a18.09,18.09,0,0,1-8.79-5.77,24.38,24.38,0,0,1-4.67-10.71,84.54,84.54,0,0,1-1.37-16.57V64.45h-10.8V43.58h10.8V18.12h24.53V43.58Z"/><path d="M365.32,135.12V10.62h80.57v22h-55.3V61.7H434.9V83.31H390.59v29.84h55.3v22Z"/><path d="M455.77,43.58H482L496.6,72l14.83-28.38h26.18l-26,44.85,26,46.69H511.43l-14.83-28-14.65,28H455.77l25.08-45.95Z"/><circle class="cls-1" cx="558.45" cy="121.8" r="13.33"/></svg>